<mxfile host="app.diagrams.net" modified="2023-10-26T10:11:30.061Z" agent="Mozilla/5.0 (Windows NT 10.0; Win64; x64) AppleWebKit/537.36 (KHTML, like Gecko) Chrome/118.0.0.0 Safari/537.36 Edg/118.0.2088.61" etag="4lVtSvyo6phKsrLHeMU5" version="22.0.8" type="device">
  <diagram name="Page-1" id="6j4xBniCLMBM9qtiVP3c">
    <mxGraphModel dx="1386" dy="781" grid="1" gridSize="10" guides="1" tooltips="1" connect="1" arrows="1" fold="1" page="1" pageScale="1" pageWidth="827" pageHeight="1169" math="0" shadow="0">
      <root>
        <mxCell id="0" />
        <mxCell id="1" parent="0" />
        <mxCell id="OV4neHM5dVvTear54BN7-7" style="edgeStyle=orthogonalEdgeStyle;rounded=0;orthogonalLoop=1;jettySize=auto;html=1;entryX=0.5;entryY=0;entryDx=0;entryDy=0;" parent="1" source="OV4neHM5dVvTear54BN7-1" target="OV4neHM5dVvTear54BN7-2" edge="1">
          <mxGeometry relative="1" as="geometry" />
        </mxCell>
        <mxCell id="OV4neHM5dVvTear54BN7-1" value="START" style="rounded=1;whiteSpace=wrap;html=1;" parent="1" vertex="1">
          <mxGeometry x="160" y="50" width="120" height="60" as="geometry" />
        </mxCell>
        <mxCell id="OV4neHM5dVvTear54BN7-11" style="edgeStyle=orthogonalEdgeStyle;rounded=0;orthogonalLoop=1;jettySize=auto;html=1;entryX=0.5;entryY=0;entryDx=0;entryDy=0;" parent="1" source="OV4neHM5dVvTear54BN7-2" target="OV4neHM5dVvTear54BN7-3" edge="1">
          <mxGeometry relative="1" as="geometry" />
        </mxCell>
        <mxCell id="OV4neHM5dVvTear54BN7-2" value="NOME" style="html=1;strokeWidth=2;shape=manualInput;whiteSpace=wrap;rounded=1;size=26;arcSize=11;" parent="1" vertex="1">
          <mxGeometry x="170" y="140" width="100" height="60" as="geometry" />
        </mxCell>
        <mxCell id="OV4neHM5dVvTear54BN7-9" style="edgeStyle=orthogonalEdgeStyle;rounded=0;orthogonalLoop=1;jettySize=auto;html=1;" parent="1" source="OV4neHM5dVvTear54BN7-3" target="OV4neHM5dVvTear54BN7-4" edge="1">
          <mxGeometry relative="1" as="geometry" />
        </mxCell>
        <mxCell id="OV4neHM5dVvTear54BN7-3" value="VALOR APLICADO" style="html=1;strokeWidth=2;shape=manualInput;whiteSpace=wrap;rounded=1;size=26;arcSize=11;" parent="1" vertex="1">
          <mxGeometry x="170" y="230" width="100" height="60" as="geometry" />
        </mxCell>
        <mxCell id="OV4neHM5dVvTear54BN7-10" style="edgeStyle=orthogonalEdgeStyle;rounded=0;orthogonalLoop=1;jettySize=auto;html=1;" parent="1" source="OV4neHM5dVvTear54BN7-4" target="OV4neHM5dVvTear54BN7-5" edge="1">
          <mxGeometry relative="1" as="geometry" />
        </mxCell>
        <mxCell id="OV4neHM5dVvTear54BN7-4" value="MESES" style="html=1;strokeWidth=2;shape=manualInput;whiteSpace=wrap;rounded=1;size=26;arcSize=11;" parent="1" vertex="1">
          <mxGeometry x="170" y="330" width="100" height="60" as="geometry" />
        </mxCell>
        <mxCell id="OV4neHM5dVvTear54BN7-20" style="edgeStyle=orthogonalEdgeStyle;rounded=0;orthogonalLoop=1;jettySize=auto;html=1;" parent="1" source="OV4neHM5dVvTear54BN7-5" target="OV4neHM5dVvTear54BN7-12" edge="1">
          <mxGeometry relative="1" as="geometry" />
        </mxCell>
        <mxCell id="OV4neHM5dVvTear54BN7-5" value="TAXA" style="html=1;strokeWidth=2;shape=manualInput;whiteSpace=wrap;rounded=1;size=26;arcSize=11;" parent="1" vertex="1">
          <mxGeometry x="170" y="440" width="100" height="60" as="geometry" />
        </mxCell>
        <mxCell id="OV4neHM5dVvTear54BN7-24" style="edgeStyle=orthogonalEdgeStyle;rounded=0;orthogonalLoop=1;jettySize=auto;html=1;entryX=0;entryY=0.5;entryDx=0;entryDy=0;" parent="1" source="OV4neHM5dVvTear54BN7-12" target="OV4neHM5dVvTear54BN7-23" edge="1">
          <mxGeometry relative="1" as="geometry" />
        </mxCell>
        <mxCell id="OV4neHM5dVvTear54BN7-39" style="edgeStyle=orthogonalEdgeStyle;rounded=0;orthogonalLoop=1;jettySize=auto;html=1;entryX=0.5;entryY=0;entryDx=0;entryDy=0;" parent="1" source="OV4neHM5dVvTear54BN7-12" target="OV4neHM5dVvTear54BN7-27" edge="1">
          <mxGeometry relative="1" as="geometry" />
        </mxCell>
        <mxCell id="OV4neHM5dVvTear54BN7-12" value="CONTADOR &amp;lt;= MESES" style="strokeWidth=2;html=1;shape=mxgraph.flowchart.decision;whiteSpace=wrap;" parent="1" vertex="1">
          <mxGeometry x="170" y="600" width="100" height="100" as="geometry" />
        </mxCell>
        <mxCell id="OV4neHM5dVvTear54BN7-21" style="edgeStyle=orthogonalEdgeStyle;rounded=0;orthogonalLoop=1;jettySize=auto;html=1;" parent="1" source="OV4neHM5dVvTear54BN7-15" target="OV4neHM5dVvTear54BN7-12" edge="1">
          <mxGeometry relative="1" as="geometry" />
        </mxCell>
        <mxCell id="OV4neHM5dVvTear54BN7-15" value="INCREMENTA CONTADOR" style="rounded=1;whiteSpace=wrap;html=1;absoluteArcSize=1;arcSize=14;strokeWidth=2;" parent="1" vertex="1">
          <mxGeometry x="409" y="525" width="90" height="60" as="geometry" />
        </mxCell>
        <mxCell id="OV4neHM5dVvTear54BN7-18" style="edgeStyle=orthogonalEdgeStyle;rounded=0;orthogonalLoop=1;jettySize=auto;html=1;entryX=0.5;entryY=1;entryDx=0;entryDy=0;" parent="1" source="OV4neHM5dVvTear54BN7-16" target="OV4neHM5dVvTear54BN7-15" edge="1">
          <mxGeometry relative="1" as="geometry" />
        </mxCell>
        <mxCell id="OV4neHM5dVvTear54BN7-16" value="VALOR CORRIGIDO = VALOR CORRIGIDO * TAXA" style="rounded=1;whiteSpace=wrap;html=1;absoluteArcSize=1;arcSize=14;strokeWidth=2;" parent="1" vertex="1">
          <mxGeometry x="389" y="605" width="130" height="90" as="geometry" />
        </mxCell>
        <mxCell id="OV4neHM5dVvTear54BN7-25" style="edgeStyle=orthogonalEdgeStyle;rounded=0;orthogonalLoop=1;jettySize=auto;html=1;entryX=0;entryY=0.5;entryDx=0;entryDy=0;" parent="1" source="OV4neHM5dVvTear54BN7-23" target="OV4neHM5dVvTear54BN7-16" edge="1">
          <mxGeometry relative="1" as="geometry" />
        </mxCell>
        <mxCell id="OV4neHM5dVvTear54BN7-23" value="SIM" style="shape=parallelogram;html=1;strokeWidth=2;perimeter=parallelogramPerimeter;whiteSpace=wrap;rounded=1;arcSize=12;size=0.23;" parent="1" vertex="1">
          <mxGeometry x="300" y="640" width="50" height="20" as="geometry" />
        </mxCell>
        <mxCell id="OV4neHM5dVvTear54BN7-27" value="NÃƒO" style="shape=parallelogram;html=1;strokeWidth=2;perimeter=parallelogramPerimeter;whiteSpace=wrap;rounded=1;arcSize=12;size=0.23;" parent="1" vertex="1">
          <mxGeometry x="90" y="670" width="50" height="20" as="geometry" />
        </mxCell>
        <mxCell id="OV4neHM5dVvTear54BN7-28" value="NOME" style="strokeWidth=2;html=1;shape=mxgraph.flowchart.display;whiteSpace=wrap;" parent="1" vertex="1">
          <mxGeometry x="50" y="750" width="100" height="60" as="geometry" />
        </mxCell>
        <mxCell id="OV4neHM5dVvTear54BN7-29" value="VALOR APLICADO" style="strokeWidth=2;html=1;shape=mxgraph.flowchart.display;whiteSpace=wrap;" parent="1" vertex="1">
          <mxGeometry x="50" y="850" width="100" height="60" as="geometry" />
        </mxCell>
        <mxCell id="OV4neHM5dVvTear54BN7-30" value="VALOR CORRIGIDO" style="strokeWidth=2;html=1;shape=mxgraph.flowchart.display;whiteSpace=wrap;" parent="1" vertex="1">
          <mxGeometry x="50" y="940" width="100" height="60" as="geometry" />
        </mxCell>
        <mxCell id="Gp2wRGuJwyfIca-ioiqs-3" style="edgeStyle=orthogonalEdgeStyle;rounded=0;orthogonalLoop=1;jettySize=auto;html=1;entryX=0.65;entryY=0.033;entryDx=0;entryDy=0;entryPerimeter=0;" edge="1" parent="1" source="OV4neHM5dVvTear54BN7-27" target="OV4neHM5dVvTear54BN7-28">
          <mxGeometry relative="1" as="geometry" />
        </mxCell>
        <mxCell id="Gp2wRGuJwyfIca-ioiqs-4" style="edgeStyle=orthogonalEdgeStyle;rounded=0;orthogonalLoop=1;jettySize=auto;html=1;entryX=0.5;entryY=0;entryDx=0;entryDy=0;entryPerimeter=0;" edge="1" parent="1" source="OV4neHM5dVvTear54BN7-28" target="OV4neHM5dVvTear54BN7-29">
          <mxGeometry relative="1" as="geometry" />
        </mxCell>
        <mxCell id="Gp2wRGuJwyfIca-ioiqs-5" style="edgeStyle=orthogonalEdgeStyle;rounded=0;orthogonalLoop=1;jettySize=auto;html=1;entryX=0.5;entryY=0;entryDx=0;entryDy=0;entryPerimeter=0;" edge="1" parent="1" source="OV4neHM5dVvTear54BN7-29" target="OV4neHM5dVvTear54BN7-30">
          <mxGeometry relative="1" as="geometry" />
        </mxCell>
      </root>
    </mxGraphModel>
  </diagram>
</mxfile>
